<svg xmlns="http://www.w3.org/2000/svg" width="561" height="205" viewBox="0 0 561 205" fill="none">
<g clip-path="url(#clip0_134_1810)">
<g filter="url(#filter0_d_134_1810)">
<rect x="223" y="59" width="117" height="117" rx="58.5" fill="#2BDB94"/>
<path fill-rule="evenodd" clip-rule="evenodd" d="M319.018 89.6248C319.946 90.5247 320.479 91.7564 320.499 93.0492C320.519 94.3419 320.025 95.5897 319.125 96.518L273.276 143.825C272.64 144.481 271.878 145.003 271.036 145.359C270.195 145.715 269.29 145.898 268.376 145.898C267.463 145.898 266.558 145.715 265.716 145.359C264.875 145.003 264.113 144.481 263.477 143.825L243.875 123.604C243.423 123.145 243.067 122.602 242.827 122.005C242.586 121.408 242.466 120.77 242.474 120.126C242.481 119.483 242.616 118.848 242.871 118.257C243.125 117.666 243.494 117.131 243.956 116.683C244.417 116.235 244.964 115.883 245.562 115.648C246.161 115.412 246.8 115.297 247.443 115.309C248.087 115.322 248.721 115.462 249.31 115.72C249.899 115.979 250.431 116.352 250.875 116.818L268.376 134.87L312.125 89.732C313.025 88.8037 314.256 88.2709 315.549 88.2508C316.842 88.2307 318.09 88.7249 319.018 89.6248Z" fill="white"/>
</g>
<path d="M367.163 31.6125C368.974 35.7163 372.253 38.9953 376.356 40.8063C372.253 42.6172 368.974 45.8962 367.163 50C365.352 45.8962 362.073 42.6172 357.969 40.8063C362.073 38.9953 365.352 35.7163 367.163 31.6125Z" fill="#FEAB27"/>
<path d="M391.194 108C393.005 112.104 396.284 115.383 400.387 117.194C396.284 119.005 393.005 122.284 391.194 126.387C389.383 122.284 386.104 119.005 382 117.194C386.104 115.383 389.383 112.104 391.194 108Z" fill="#FEAB27"/>
<path d="M435.194 50C437.005 54.1038 440.284 57.3828 444.387 59.1937C440.284 61.0047 437.005 64.2837 435.194 68.3875C433.383 64.2837 430.104 61.0047 426 59.1937C430.104 57.3828 433.383 54.1038 435.194 50Z" fill="#FEAB27"/>
<path d="M217.194 150C219.005 154.104 222.284 157.383 226.387 159.194C222.284 161.005 219.005 164.284 217.194 168.387C215.383 164.284 212.104 161.005 208 159.194C212.104 157.383 215.383 154.104 217.194 150Z" fill="#FEAB27"/>
<path d="M145.194 108C147.005 112.104 150.284 115.383 154.387 117.194C150.284 119.005 147.005 122.284 145.194 126.387C143.383 122.284 140.104 119.005 136 117.194C140.104 115.383 143.383 112.104 145.194 108Z" fill="#FEAB27"/>
<path d="M145.194 18C147.005 22.1038 150.284 25.3828 154.387 27.1937C150.284 29.0047 147.005 32.2837 145.194 36.3875C143.383 32.2837 140.104 29.0047 136 27.1937C140.104 25.3828 143.383 22.1038 145.194 18Z" fill="#FEAB27"/>
<path d="M170.28 64.1127C172.091 68.2164 175.37 71.4954 179.473 73.3064C175.37 75.1174 172.091 78.3964 170.28 82.5001C168.469 78.3964 165.19 75.1173 161.086 73.3064C165.19 71.4954 168.469 68.2164 170.28 64.1127Z" fill="#FEAB27"/>
<path d="M222.112 18.1393C223.923 22.2431 227.202 25.5221 231.306 27.3331C227.202 29.144 223.923 32.423 222.112 36.5268C220.301 32.423 217.022 29.144 212.919 27.3331C217.022 25.5221 220.301 22.2431 222.112 18.1393Z" fill="#FEAB27"/>
<path d="M367.55 149.613C369.361 153.716 372.64 156.995 376.744 158.806C372.64 160.617 369.361 163.896 367.55 168C365.739 163.896 362.46 160.617 358.356 158.806C362.46 156.995 365.739 153.716 367.55 149.613Z" fill="#FEAB27"/>
</g>
<defs>
<filter id="filter0_d_134_1810" x="208" y="44" width="147" height="147" filterUnits="userSpaceOnUse" color-interpolation-filters="sRGB">
<feFlood flood-opacity="0" result="BackgroundImageFix"/>
<feColorMatrix in="SourceAlpha" type="matrix" values="0 0 0 0 0 0 0 0 0 0 0 0 0 0 0 0 0 0 127 0" result="hardAlpha"/>
<feMorphology radius="15" operator="dilate" in="SourceAlpha" result="effect1_dropShadow_134_1810"/>
<feOffset/>
<feComposite in2="hardAlpha" operator="out"/>
<feColorMatrix type="matrix" values="0 0 0 0 0.890196 0 0 0 0 0.976471 0 0 0 0 0.913203 0 0 0 0.62 0"/>
<feBlend mode="normal" in2="BackgroundImageFix" result="effect1_dropShadow_134_1810"/>
<feBlend mode="normal" in="SourceGraphic" in2="effect1_dropShadow_134_1810" result="shape"/>
</filter>
<clipPath id="clip0_134_1810">
<rect width="561" height="205" fill="white"/>
</clipPath>
</defs>
</svg>
